<svg xmlns="http://www.w3.org/2000/svg" width="16" height="16" viewBox="0 0 16 16" fill="none">
  <g filter="url(#filter0_di_267_701)">
    <path d="M3.85136 5.68395C3.78579 5.67967 3.73609 5.67692 3.68648 5.67311C3.44592 5.65465 3.32172 5.53186 3.3188 5.29249C3.31426 4.92024 3.31303 4.54782 3.31892 4.1756C3.32686 3.67283 3.69308 3.31782 4.21145 3.31278C4.75896 3.30746 5.30656 3.31149 5.85412 3.31144C5.92426 3.31143 5.9944 3.31144 6.06938 3.31144C6.08462 3.11888 6.08056 2.94248 6.11539 2.77371C6.15741 2.55039 6.27725 2.34806 6.45463 2.20092C6.63202 2.05377 6.85608 1.97083 7.08895 1.96611C7.57133 1.95387 8.05399 1.9538 8.53693 1.9659C9.09482 1.98049 9.52204 2.4088 9.54435 2.95473C9.54887 3.06549 9.545 3.17658 9.545 3.31144C9.94214 3.31144 10.3216 3.31135 10.7011 3.31147C10.9533 3.31154 11.2056 3.30564 11.4576 3.31346C11.6839 3.31557 11.9004 3.40434 12.0602 3.56063C12.22 3.71691 12.3103 3.92818 12.3117 4.14883C12.3208 4.47173 12.3141 4.79505 12.3141 5.11819C12.3142 5.57743 12.2576 5.64027 11.7786 5.69005C11.7575 6.07638 11.734 6.4666 11.7153 6.85705C11.6381 8.47059 11.5647 10.0843 11.485 11.6977C11.4518 12.3707 11.0334 12.7571 10.3478 12.7576C8.66188 12.7589 6.97597 12.7589 5.29006 12.7576C4.6011 12.7572 4.17989 12.3735 4.14683 11.7035C4.0527 9.7954 3.96154 7.8872 3.87336 5.97886C3.86873 5.88189 3.85903 5.78515 3.85136 5.68395ZM4.55144 5.68581C4.54919 5.72745 4.54527 5.75486 4.5466 5.78203C4.64243 7.7471 4.73847 9.71215 4.83472 11.6772C4.84872 11.9639 4.97061 12.0822 5.26609 12.0823C6.94552 12.0832 8.62496 12.0833 10.3044 12.0827C10.6854 12.0826 10.7819 11.9831 10.7995 11.6103C10.8635 10.2558 10.9332 8.90144 10.9993 7.54695C11.0294 6.93091 11.0561 6.31471 11.0849 5.68581H4.55144ZM11.6216 4.98777C11.6216 4.74574 11.6218 4.52825 11.6215 4.31076C11.6212 4.00189 11.6063 3.98681 11.2939 3.98679C8.97557 3.98664 6.65727 3.98663 4.33897 3.98675C4.28857 3.98675 4.22538 3.96881 4.1905 3.99166C4.12232 4.03633 4.02332 4.10089 4.01906 4.1626C4.00038 4.43325 4.01101 4.70582 4.01101 4.98777H11.6216ZM8.85337 3.30247C8.85337 3.18855 8.85631 3.09126 8.85278 2.9942C8.84464 2.76979 8.71875 2.64112 8.48968 2.63881C8.03639 2.63424 7.58307 2.63438 7.12971 2.63922C6.91464 2.64187 6.78804 2.7736 6.77906 2.98527C6.7747 3.088 6.7783 3.19105 6.7783 3.30247H8.85337Z" fill="#FFBE57"/>
    <path d="M6.25842 8.75329C6.25839 8.19978 6.25686 7.64627 6.25921 7.09276C6.26004 6.89607 6.41433 6.76931 6.62701 6.78116C6.81028 6.79137 6.94833 6.90206 6.94877 7.06154C6.95188 8.19048 6.95183 9.31942 6.9486 10.4484C6.9481 10.614 6.79504 10.7284 6.60351 10.7278C6.40477 10.7271 6.26065 10.6084 6.25963 10.4303C6.25642 9.87128 6.25845 9.31229 6.25842 8.75329Z" fill="#B99867"/>
    <path d="M8.68064 8.74632C8.68065 8.20377 8.67984 7.66121 8.68106 7.11866C8.68153 6.91048 8.80866 6.78839 9.02168 6.7856C9.23371 6.78282 9.37243 6.90825 9.37264 7.1111C9.3738 8.20716 9.37384 9.30323 9.37278 10.3993C9.37261 10.6058 9.24294 10.73 9.03188 10.7326C8.8141 10.7353 8.68131 10.6074 8.68095 10.3904C8.68003 9.84238 8.67993 9.29435 8.68064 8.74632Z" fill="#B99867"/>
  </g>
  <defs>
    <filter id="filter0_di_267_701" x="0.254197" y="0.156403" width="16.0229" height="16.5628" filterUnits="userSpaceOnUse" color-interpolation-filters="sRGB">
      <feFlood flood-opacity="0" result="BackgroundImageFix"/>
      <feColorMatrix in="SourceAlpha" type="matrix" values="0 0 0 0 0 0 0 0 0 0 0 0 0 0 0 0 0 0 127 0" result="hardAlpha"/>
      <feOffset dy="0.900152"/>
      <feGaussianBlur stdDeviation="0.18003"/>
      <feComposite in2="hardAlpha" operator="out"/>
      <feColorMatrix type="matrix" values="0 0 0 0 0 0 0 0 0 0 0 0 0 0 0 0 0 0 0.25 0"/>
      <feBlend mode="normal" in2="BackgroundImageFix" result="effect1_dropShadow_267_701"/>
      <feBlend mode="normal" in="SourceGraphic" in2="effect1_dropShadow_267_701" result="shape"/>
      <feColorMatrix in="SourceAlpha" type="matrix" values="0 0 0 0 0 0 0 0 0 0 0 0 0 0 0 0 0 0 127 0" result="hardAlpha"/>
      <feOffset dy="0.450076"/>
      <feGaussianBlur stdDeviation="0.0675114"/>
      <feComposite in2="hardAlpha" operator="arithmetic" k2="-1" k3="1"/>
      <feColorMatrix type="matrix" values="0 0 0 0 0 0 0 0 0 0 0 0 0 0 0 0 0 0 0.25 0"/>
      <feBlend mode="normal" in2="shape" result="effect2_innerShadow_267_701"/>
    </filter>
  </defs>
</svg>